<?xml version="1.0" standalone="no"?>
<!DOCTYPE svg PUBLIC "-//W3C//DTD SVG 20010904//EN"
 "http://www.w3.org/TR/2001/REC-SVG-20010904/DTD/svg10.dtd">
<svg version="1.0" xmlns="http://www.w3.org/2000/svg"
 width="128.000000pt" height="128.000000pt" viewBox="0 0 128.000000 128.000000"
 preserveAspectRatio="xMidYMid meet">
<metadata>
Created by potrace 1.14, written by Peter Selinger 2001-2017
</metadata>
<g transform="translate(0.000000,128.000000) scale(0.100000,-0.100000)"
fill="#000000" stroke="none">
<path d="M691 1144 c-11 -14 -23 -34 -26 -43 -6 -21 -46 -41 -81 -41 -14 0
-53 -7 -88 -16 -112 -28 -165 -91 -186 -220 -6 -38 -18 -100 -26 -139 -8 -38
-19 -110 -24 -160 -5 -49 -14 -108 -19 -130 -44 -173 -43 -178 39 -183 43 -3
57 1 76 19 l24 22 0 -31 c0 -37 2 -38 60 -47 37 -5 49 -3 67 14 l22 21 13 -28
c12 -25 18 -27 85 -30 64 -3 73 -1 83 17 10 20 11 20 30 1 20 -20 71 -27 104
-14 9 3 16 17 16 29 0 22 2 23 32 14 57 -16 77 -12 84 18 4 14 2 34 -5 45 -8
12 -13 108 -16 293 -5 293 -7 312 -37 363 -23 37 -10 42 31 11 24 -18 31 -19
49 -8 37 23 55 119 33 175 -11 29 -15 31 -44 24 -18 -4 -53 -19 -79 -33 l-48
-26 -44 37 c-62 52 -89 72 -97 72 -4 0 -17 -12 -28 -26z"/>
</g>
</svg>
